<?xml version="1.0" encoding="UTF-8"?>
<svg id="Layer_1" xmlns="http://www.w3.org/2000/svg" version="1.1" viewBox="0 0 32 32">
  <!-- Generator: Adobe Illustrator 30.0.0, SVG Export Plug-In . SVG Version: 2.1.1 Build 123)  -->
  <defs>
    <style>
      .st0, .st1 {
        fill: #f5f5f5;
      }

      .st1 {
        opacity: .57;
      }
    </style>
  </defs>
  <path class="st0" d="M2.48,20.15s0,.01,0,.02c1.42,4.88,5.27,8.72,10.14,10.14.05.02.11.03.16.05.07.02.15.04.22.06.03,0,.05.01.08.02.11.03.22.05.33.08.02,0,.03,0,.05.01.1.02.2.04.3.07.02,0,.03,0,.05.01.23.05.46.09.69.12.02,0,.04,0,.06,0,.08.01.17.02.25.04.06,0,.13.02.19.02.06,0,.12.01.18.02.07,0,.15.02.23.02.07,0,.14.01.2.02,0,0,.01,0,.02,0,.01,0,.03,0,.04,0,.11,0,.23.02.34.02.08,0,.16,0,.25,0,.1,0,.2,0,.3,0,.08,0,.15,0,.23,0,.88,0,1.75-.08,2.59-.22.04,0,.08-.01.11-.02.06-.01.12-.02.18-.03.06-.01.13-.02.19-.04,4.33-.91,7.96-3.7,10.02-7.47.07-.14.23-.43.23-.43l-2.12-1.29s-.71.8-1.39,1.58c0,0,0,0,0,0-.68.78-1.03,1.12-1.39,1.44-.86.76-1.69,1.09-2.24,1.29-.01,0-.03.01-.04.02-.37.12-.78.22-1.22.29-.52.08-1.08.13-1.69.14-.11,0-.23,0-.35,0-.35,0-.69-.02-1.03-.06-1.09-.13-2.13-.47-3.12-1.02-.4-.22-.78-.48-1.16-.76-.37-.28-.74-.6-1.09-.95-.17-.17-.34-.34-.5-.52-2.03-2.21-3.04-5.18-3.04-8.92,0-.26,0-.52.02-.77.02-.38.05-.74.09-1.09.07-.62.19-1.21.34-1.76.18-.63.4-1.23.68-1.78.14-.28.29-.55.46-.81.24-.37.5-.72.8-1.05.03-.04.06-.07.09-.1.01-.01.02-.02.03-.03.1-.1.19-.2.29-.3.04-.04.08-.08.12-.12.13-.12.26-.24.39-.35.07-.06.15-.13.22-.19,0,0,0,0,0,0,.03-.03.06-.05.09-.07.17-.14.34-.26.52-.38.26-.17.52-.33.78-.47.2-.11.41-.2.62-.29.24-.1.48-.18.72-.25.12-.03.24-.06.36-.09.17-.04.35-.07.52-.09.21-.03.42-.05.63-.06.11,0,.22,0,.34,0,.09,0,.17,0,.26,0,0,0,0,0,0,0,.08,0,.15,0,.23.02.02,0,.03,0,.05,0,.2.02.39.06.58.11.01,0,.02,0,.03,0,.1.03.19.06.29.09.15.05.29.12.43.19.12.06.24.14.35.21.01,0,.02.02.04.02.25.19.48.42.7.7.05.07.1.13.15.21,0,0,0,0,0,0,.09.13.17.27.26.41.12.21.23.44.34.69.03.08.07.16.1.24.04.12.09.24.14.36,0,.02.01.03.02.05.12.29.24.57.37.82.1.19.2.38.31.55.01.02.02.04.03.05.07.12.15.23.23.34.08.12.17.22.26.33.1.12.2.22.31.32.09.08.18.16.27.23.29.23.59.41.9.55.1.05.2.09.3.12.16.06.32.1.48.14.08.02.15.03.23.04.19.03.39.05.6.05h.04c.86,0,1.83-.22,2.3-1.02.26-.45.38-.98.38-1.5,0-.64-.19-1.24-.52-1.74-.04-.05-.08-.1-.12-.14-.04-.04-.07-.09-.11-.13-.05-.06-.1-.12-.16-.18-.03-.04-.06-.07-.1-.11-.05-.05-.09-.1-.14-.15-.06-.06-.11-.12-.17-.18-.04-.04-.07-.07-.11-.11-.06-.06-.12-.12-.18-.17-.04-.04-.07-.07-.11-.11-.09-.08-.18-.17-.27-.25-.05-.05-.11-.1-.16-.14-.04-.04-.08-.07-.13-.11-.04-.04-.08-.07-.13-.11-.07-.06-.14-.12-.21-.17-.05-.04-.1-.08-.15-.12-.06-.05-.12-.09-.18-.14-.08-.06-.17-.13-.25-.19-.07-.05-.13-.1-.2-.15-.06-.05-.13-.09-.19-.13-.05-.03-.1-.07-.15-.1-.06-.04-.12-.08-.17-.11-.09-.06-.17-.11-.26-.17-.04-.02-.08-.05-.11-.07-.12-.07-.24-.14-.35-.21-.05-.03-.1-.06-.15-.08-.08-.05-.16-.09-.25-.13-.05-.03-.1-.05-.15-.08-.12-.06-.25-.13-.37-.19-.04-.02-.08-.04-.13-.06-.09-.04-.19-.09-.28-.13-.05-.02-.1-.05-.16-.07-.1-.04-.2-.08-.3-.12-.04-.02-.08-.03-.11-.05-.13-.05-.27-.1-.4-.15-.04-.02-.09-.03-.13-.05-.1-.04-.21-.07-.31-.11-.05-.02-.09-.03-.14-.05-.04-.01-.09-.03-.13-.04-.06-.02-.12-.04-.19-.06-.04-.01-.09-.03-.13-.04-.09-.02-.17-.05-.26-.07-.04,0-.07-.02-.11-.03-.09-.02-.18-.04-.27-.07-.04-.01-.09-.02-.13-.03-.07-.02-.14-.03-.2-.04-.04,0-.09-.02-.13-.03-.07-.01-.14-.03-.2-.04-.05,0-.1-.02-.14-.03-.05,0-.1-.02-.15-.03-.06-.01-.12-.02-.19-.03,0,0,0,0,0,0,0,0,0,0-.01,0-.11-.02-.21-.03-.32-.04,0,0,0,0,0,0,0,0,0,0,0,0-.13-.02-.25-.03-.38-.04,0,0,0,0,0,0-.19-.02-.39-.03-.59-.05-.12,0-.23-.01-.35-.02-.04,0-.08,0-.12,0-.15,0-.3,0-.45,0-.14,0-.28,0-.42,0-.05,0-.09,0-.14,0-.09,0-.19,0-.28.01-.05,0-.11,0-.16.01-.09,0-.17.01-.26.02-.06,0-.11,0-.17.02-.08,0-.17.02-.25.03-.05,0-.11.01-.16.02-.1.01-.19.03-.29.04-.04,0-.08.01-.13.02-.13.02-.26.04-.39.07-.06.01-.11.02-.17.03-.08.01-.16.03-.23.05-.06.01-.12.03-.18.04-.07.02-.14.03-.22.05-.07.02-.14.03-.2.05-.04.01-.08.02-.12.03-.07.02-.15.04-.22.06-.04.01-.09.02-.13.04-.07.02-.14.04-.22.06-.04.01-.09.03-.13.04-.07.02-.14.05-.21.07-.04.01-.08.03-.12.04-.07.03-.15.05-.22.08-.04.01-.07.03-.11.04-.08.03-.16.06-.24.09-.03.01-.06.02-.09.03-.1.04-.2.08-.29.12,0,0-.02,0-.03.01-.44.19-.88.4-1.3.62,0,0-.01,0-.02.01-.1.05-.2.11-.29.16,0,0-.02.01-.03.02-.09.05-.19.11-.28.17,0,0-.02.01-.03.02-.09.06-.18.11-.28.17,0,0-.02.01-.03.02-.09.06-.18.12-.28.18,0,0-.01,0-.02.01-.09.06-.18.13-.28.19,0,0-.01,0-.02.01-.08.05-.15.11-.22.16-.03.02-.05.04-.08.06-1.33,1-2.48,2.21-3.41,3.58,0,.01-.02.02-.02.03-.06.09-.11.17-.17.26,0,.01-.01.02-.02.03-.12.19-.24.39-.36.59,0,0-.01.02-.02.03-.05.09-.1.18-.15.27,0,.01-.01.03-.02.04-.11.2-.22.41-.32.62,0,0,0,.02-.01.02-.05.09-.09.19-.13.29,0,.02-.01.03-.02.05-.1.21-.19.42-.27.64,0,0,0,.02,0,.03-.04.1-.08.19-.11.29,0,.02-.01.04-.02.06-.04.1-.07.2-.11.3,0,0,0,.01,0,.02-.04.11-.07.22-.11.34,0,.01,0,.02,0,.03-.03.1-.06.2-.09.29,0,.02-.01.05-.02.07-.03.09-.05.19-.08.28,0,.02,0,.03-.01.05-.03.11-.06.23-.08.34,0,.01,0,.02,0,.03-.02.1-.04.2-.06.3,0,.03-.01.06-.02.09-.02.09-.04.18-.05.27,0,.02,0,.05-.01.07-.02.11-.04.23-.06.34,0,.01,0,.02,0,.04-.02.1-.03.2-.04.3,0,.03,0,.06-.01.1-.01.09-.02.17-.03.26,0,.03,0,.06,0,.09-.01.11-.02.23-.03.34,0,0,0,.02,0,.03,0,.1-.01.21-.02.32,0,.03,0,.07,0,.1,0,.08,0,.17,0,.25,0,.03,0,.07,0,.1,0,.12,0,.23,0,.35,0,1.41.2,2.77.56,4.06,0,0,.03.09.03.09Z"/>
  <path class="st1" d="M2.46,20.09s0,0,0-.01c0,0,0,0,0,.01Z"/>
</svg>