<?xml version="1.0" encoding="UTF-8"?>
<svg id="Layer_1" xmlns="http://www.w3.org/2000/svg" version="1.1" viewBox="0 0 300 80">
  <!-- Generator: Adobe Illustrator 30.0.0, SVG Export Plug-In . SVG Version: 2.1.1 Build 123)  -->
  <defs>
    <style>
      .st0, .st1 {
        fill: #f5f5f5;
      }

      .st1 {
        opacity: .57;
      }
    </style>
  </defs>
  <g>
    <path class="st0" d="M69.98,72.45c.79-.55,1.84-.89,3.15-1.04,2.49-.29,3.92-.66,4.28-1.13.72-.93,1.08-2.83,1.08-5.71v-15.18l-.11-3.61v-10.88l-.11-12.44v-2.15c0-2.94-.24-5.11-.71-6.51-1.27-.75-2.62-1.13-4.07-1.13-.87,0-1.68-.09-2.44-.27-.11-.9-.16-1.56-.16-1.99,0-.29.04-.61.11-.97,2.83-.32,5.77-1.05,8.82-2.18s5.38-2.29,6.99-3.48l1.49-.05c.32,0,.78.02,1.39.05.21,12.42.32,20.93.32,25.52,0,1.36-.04,2.46-.11,3.28v.32l.11,1.02v23.85l.11,7.86v1.29c0,1.54.25,2.64.75,3.28.43.47,1.34.75,2.73.86.75.07,2.23.25,4.44.54.18.75.27,1.37.27,1.83,0,.36-.04.86-.11,1.51l-4.26-.19c-2.37-.16-5.35-.24-8.95-.24l-1.99-.05c-2.05,0-5.01.16-8.89.48h-3.93l-.22-2.52Z"/>
    <path class="st0" d="M148.17,64.72l1.24.81c.32.25.52.56.59.92l.05.27c-.86,3.2-1.99,5.4-3.39,6.6-1.4,1.2-3.14,1.81-5.23,1.81s-3.94-.58-5.47-1.75c-1.53-1.17-2.92-3.22-4.17-6.17-1.55,2.73-3.72,4.79-6.52,6.17-2.8,1.38-6.23,2.07-10.29,2.07-3.74,0-6.49-.78-8.25-2.34s-2.64-3.62-2.64-6.17c0-1.19.26-2.39.78-3.61.52-1.22,1.36-2.43,2.53-3.64,1.17-1.2,3.04-2.52,5.63-3.96.39-.22,1.76-.83,4.1-1.83l13.42-5.39c.11-1.36.16-2.75.16-4.15,0-4.85-.59-8.15-1.78-9.92-.72-1.08-1.98-1.62-3.77-1.62s-3.45.34-4.96,1.02c-1.51.68-2.6,1.56-3.29,2.64-.5.79-.93,2.28-1.29,4.47-.25,1.58-.48,2.5-.7,2.75-.54.68-1.52,1.3-2.94,1.86-1.42.56-2.38.96-2.88,1.21-1.94.93-3.48,1.4-4.63,1.4-.5-.43-.75-1.04-.75-1.83,0-2.05.43-3.81,1.29-5.28,1.29-2.08,3.24-4.1,5.85-6.06,2.6-1.96,5.04-3.33,7.3-4.12,3.09-1.01,6.86-1.51,11.32-1.51,2.87,0,5.34.53,7.41,1.59,2.07,1.06,3.5,2.63,4.31,4.72.81,2.08,1.21,5.84,1.21,11.26l-.11,8.89.11,6.52v1.67c0,1.51.2,2.54.61,3.1.41.56.93.84,1.56.84.39,0,.72-.11,1.01-.32l1.62-2.53.97-.38ZM130.49,52.22c-2.05.68-4.36,1.82-6.92,3.42-2.57,1.6-4.36,3.21-5.36,4.82-.72,1.19-1.08,2.64-1.08,4.36,0,1.54.47,2.82,1.4,3.83.93,1.01,2.01,1.51,3.23,1.51,2.01,0,3.72-.57,5.12-1.72,1.9-1.54,3.02-2.78,3.34-3.69s.48-3.51.48-7.79c0-1.58-.07-3.16-.22-4.74Z"/>
    <path class="st0" d="M152.91,74.85l-.11-3.5,6.09-.81c.9-.25,1.52-.62,1.86-1.1.34-.48.51-1.57.51-3.26v-.59c0-.43.03-1.21.08-2.34s.08-2.13.08-2.99c0-.68-.05-1.99-.16-3.93l.08-2.69-.08-2.53.16-8.78c0-1.11-.11-2.26-.33-3.45-.4-.54-1.12-1.01-2.17-1.4-1.05-.39-2.88-.68-5.48-.86v-3.02c3.7-.22,6.95-.99,9.75-2.32,1.9-.86,3.97-2.39,6.2-4.58h3.61c.14,4.45.22,10.24.22,17.35l-.38,21.99c0,1.51.07,2.87.22,4.1,1.11.4,2.93.79,5.44,1.19.97.14,1.74.32,2.32.54l-.11,2.96c-.97.04-1.69.05-2.15.05-.54,0-1.36-.04-2.47-.11-3.66-.18-8.55-.27-14.68-.27-1.76,0-3.46.06-5.11.19-1.65.13-2.78.19-3.39.19ZM160.45,10.57c0-1.94.63-3.53,1.89-4.77,1.26-1.24,2.87-1.86,4.85-1.86,2.12,0,3.88.66,5.28,1.97,1.4,1.31,2.1,2.79,2.1,4.45,0,1.22-.28,2.44-.84,3.66-.56,1.22-1.44,2.2-2.64,2.94-1.2.74-2.43,1.1-3.69,1.1-1.72,0-3.31-.74-4.77-2.21-1.45-1.47-2.18-3.23-2.18-5.28Z"/>
    <path class="st0" d="M184.33,72.13c.47-.41,1.08-.7,1.83-.89,1.83-.39,3.57-1.11,5.23-2.15.32-.86.48-3.77.48-8.71,0-9.07-.2-15.21-.59-18.4-.07-.57-.36-1.08-.86-1.51-.9-.47-2.12-.88-3.66-1.24-.72-.18-1.15-.57-1.29-1.18l-.16-1.99c2.66-.36,5.07-1.27,7.22-2.72s3.77-2.94,4.85-4.45c.57-.83,1.08-1.45,1.51-1.89l3.77-.11c.18.83.27,1.51.27,2.05,0,.4-.02.88-.05,1.45-.04,1.26-.05,2.3-.05,3.13,0,.4.02,1.89.05,4.47,1.47-2.51,2.55-4.2,3.23-5.07.32-.39,1.27-1.27,2.86-2.64,1.22-.9,2.6-1.35,4.15-1.35,1.9,0,3.56.65,4.96,1.94s2.1,2.78,2.1,4.47-.53,3.21-1.59,4.55c-1.06,1.35-2.47,2.02-4.23,2.02-1.54,0-3.16-.65-4.85-1.94-1.01-.79-1.81-1.19-2.42-1.19l-.38.05c-.75.25-1.44.93-2.05,2.04-1.01,1.79-1.51,3.65-1.51,5.58l.11,1.45c.14,2.65.25,8.86.32,18.64.11.9.45,1.79,1.02,2.69.65.5,1.3.86,1.97,1.07.66.22,1.82.39,3.48.54,1.65.15,2.66.37,3.02.68.36.31.54.81.54,1.5,0,.4-.11.93-.32,1.58h-5.07l-10.29-.48c-2.59,0-4.94.11-7.06.32h-.92c-.25,0-2.12.09-5.6.27-.11-.59-.16-1.04-.16-1.33s.05-.72.16-1.28Z"/>
    <path class="st0" d="M267.95,35.57c2.3,2.23,4.02,4.79,5.15,7.68,1.13,2.89,1.7,5.61,1.7,8.16,0,4.81-.74,8.69-2.21,11.64-2.23,4.45-5.23,7.74-9.01,9.86-3.78,2.12-8.16,3.18-13.16,3.18-5.61,0-10.37-1.26-14.27-3.77-3.9-2.51-6.69-5.37-8.36-8.57-1.67-3.2-2.51-7.17-2.51-11.91,0-2.41.39-4.82,1.19-7.25s1.88-4.54,3.26-6.33c1.38-1.8,2.9-3.3,4.56-4.53,2.41-1.72,4.83-2.95,7.26-3.69,2.43-.74,5.37-1.1,8.82-1.1,7.52,0,13.38,2.21,17.59,6.63ZM238.48,54.19c.32,4.46.56,7.03.7,7.72.47,2.41,1.2,4.48,2.21,6.21.68,1.12,1.81,2.1,3.39,2.97,1.58.86,3.47,1.29,5.66,1.29,2.62,0,4.83-.84,6.63-2.51,1.8-1.67,3.09-4.29,3.88-7.85.5-2.34.75-6.17.75-11.49,0-6.55-1.08-11.18-3.23-13.89s-4.99-4.07-8.51-4.07c-2.77,0-5.06.77-6.87,2.32-1.81,1.55-3.08,3.83-3.8,6.85-.47,1.94-.74,6.1-.81,12.47Z"/>
  </g>
  <g>
    <path class="st0" d="M26.15,58.95s0,.02,0,.03c2.29,7.86,8.48,14.05,16.34,16.34.09.02.17.05.26.07.12.03.24.07.36.1.04.01.08.02.12.03.18.05.35.09.53.13.02,0,.05.01.07.02.16.04.32.07.49.11.03,0,.05.01.08.02.37.07.74.14,1.11.2.03,0,.07.01.1.02.13.02.27.04.41.06.1.01.21.03.31.04.1.01.19.02.29.03.12.01.24.02.36.04.11.01.22.02.33.03.01,0,.02,0,.03,0,.02,0,.04,0,.06,0,.18.01.37.03.55.03.13,0,.26.01.4.02.16,0,.33,0,.49.01.12,0,.24,0,.36,0,1.42,0,2.81-.13,4.17-.36.06-.01.12-.02.18-.03.1-.02.19-.04.29-.06.1-.02.2-.04.3-.06,6.98-1.46,12.82-5.95,16.14-12.04.12-.23.36-.7.36-.7l-3.41-2.07s-1.15,1.28-2.25,2.54c0,0,0,0,0,0-1.1,1.26-1.66,1.81-2.24,2.32-1.38,1.23-2.72,1.75-3.61,2.08-.02,0-.05.02-.07.03-.6.2-1.26.35-1.97.47-.83.13-1.74.21-2.72.23-.18,0-.37,0-.56,0-.56,0-1.11-.03-1.66-.1-1.76-.21-3.43-.76-5.02-1.64-.64-.36-1.26-.77-1.87-1.23-.6-.46-1.18-.96-1.76-1.52-.27-.27-.54-.54-.81-.83-3.27-3.55-4.9-8.34-4.9-14.37,0-.42,0-.84.03-1.25.03-.6.08-1.19.15-1.76.12-1,.31-1.94.56-2.84.28-1.02.65-1.97,1.09-2.86.23-.45.47-.88.74-1.3.38-.6.81-1.16,1.29-1.69.05-.06.1-.11.15-.17.02-.02.03-.04.05-.05.16-.17.31-.33.47-.49.06-.06.13-.13.19-.19.21-.2.41-.39.62-.57.12-.1.24-.21.36-.3,0,0,0,0,.01,0,.05-.04.1-.08.15-.12.27-.22.55-.42.83-.61.41-.28.83-.53,1.26-.75.33-.17.66-.33,1-.46.38-.16.77-.29,1.16-.4.19-.05.39-.1.58-.15.28-.06.56-.11.84-.15.34-.05.68-.08,1.02-.09.18,0,.36-.01.54-.01.14,0,.28,0,.42.01,0,0,0,0,.01,0,.12,0,.25.02.37.03.03,0,.05,0,.08,0,.32.04.63.1.93.18.02,0,.03,0,.05.01.16.04.31.09.46.15.24.09.46.19.68.31.19.1.38.22.56.35.02.01.04.02.06.04.4.3.78.68,1.12,1.12.08.11.16.22.24.33,0,0,0,0,0,.01.14.21.28.43.41.66.19.34.37.71.54,1.11.05.13.11.25.16.39.07.2.14.39.22.58.01.03.02.06.03.08.19.47.39.91.59,1.32.16.31.32.6.49.88.02.03.03.06.05.09.12.19.25.38.37.55.14.19.28.36.42.53.16.19.32.36.49.52.14.14.29.26.44.38.47.37.95.66,1.45.89.16.07.32.14.48.2.25.09.51.17.77.23.12.03.24.05.37.07.31.05.63.08.96.08h.06c1.39,0,2.95-.36,3.71-1.64.43-.72.62-1.59.62-2.42,0-1.04-.31-2-.84-2.8-.06-.08-.13-.16-.2-.23-.06-.07-.12-.14-.18-.21-.08-.1-.17-.19-.25-.28-.05-.06-.1-.11-.16-.17-.07-.08-.15-.16-.22-.24-.09-.1-.18-.19-.27-.29-.06-.06-.12-.12-.18-.18-.09-.09-.19-.19-.28-.28-.06-.06-.12-.11-.17-.17-.14-.14-.29-.27-.43-.4-.09-.08-.17-.15-.26-.23-.07-.06-.13-.12-.2-.18-.07-.06-.14-.12-.2-.17-.11-.09-.22-.19-.34-.28-.08-.06-.16-.13-.24-.19-.1-.08-.19-.15-.29-.22-.13-.1-.27-.2-.4-.3-.11-.08-.22-.16-.33-.24-.1-.07-.21-.14-.31-.21-.08-.05-.16-.11-.24-.16-.09-.06-.19-.12-.28-.18-.14-.09-.28-.18-.42-.27-.06-.04-.12-.08-.18-.11-.19-.11-.38-.23-.57-.34-.08-.05-.16-.09-.24-.14-.13-.07-.27-.15-.4-.22-.08-.04-.16-.09-.24-.13-.2-.1-.4-.2-.6-.3-.07-.03-.13-.06-.2-.09-.15-.07-.3-.14-.46-.21-.08-.04-.17-.07-.25-.11-.16-.07-.32-.14-.48-.2-.06-.02-.12-.05-.18-.08-.21-.08-.43-.17-.65-.25-.07-.03-.14-.05-.22-.08-.17-.06-.34-.12-.5-.17-.07-.02-.15-.05-.22-.07-.07-.02-.14-.04-.21-.07-.1-.03-.2-.06-.3-.09-.07-.02-.14-.04-.22-.06-.14-.04-.28-.08-.41-.11-.06-.01-.11-.03-.17-.04-.14-.04-.29-.07-.43-.11-.07-.02-.14-.03-.22-.05-.11-.02-.22-.05-.33-.07-.07-.01-.14-.03-.22-.04-.11-.02-.22-.04-.33-.06-.08-.01-.15-.03-.23-.04-.08-.01-.16-.03-.25-.04-.1-.02-.2-.03-.3-.05,0,0,0,0-.02,0,0,0-.01,0-.02,0-.17-.03-.34-.05-.52-.07,0,0,0,0-.01,0,0,0,0,0,0,0-.2-.03-.4-.05-.61-.07,0,0,0,0,0,0-.31-.03-.63-.06-.95-.07-.19-.01-.38-.02-.57-.03-.07,0-.13,0-.2,0-.24,0-.48-.01-.72-.01-.23,0-.46,0-.68.01-.08,0-.15,0-.23,0-.15,0-.3.01-.46.02-.09,0-.18.01-.26.02-.14,0-.28.02-.41.03-.09,0-.18.02-.27.02-.14.01-.27.03-.41.04-.09.01-.18.02-.27.03-.15.02-.31.04-.46.06-.07,0-.13.02-.2.03-.21.03-.42.07-.63.1-.09.02-.18.03-.27.05-.13.02-.25.05-.38.07-.1.02-.2.04-.3.06-.12.03-.23.05-.35.08-.11.03-.22.05-.33.08-.07.02-.13.03-.2.05-.12.03-.24.06-.36.1-.07.02-.14.04-.21.06-.12.03-.23.07-.35.1-.07.02-.14.04-.21.06-.12.04-.23.07-.35.11-.07.02-.13.04-.2.07-.12.04-.24.08-.36.13-.06.02-.12.04-.18.06-.13.05-.26.1-.39.15-.05.02-.09.04-.14.05-.16.06-.32.13-.47.19-.02,0-.03.01-.05.02-.71.3-1.41.64-2.09,1.01-.01,0-.02.01-.03.02-.16.09-.31.17-.47.26-.01,0-.03.02-.04.02-.15.09-.3.18-.45.27-.02,0-.03.02-.05.03-.15.09-.3.18-.44.28-.01,0-.03.02-.04.03-.15.1-.3.19-.44.29-.01,0-.02.01-.03.02-.15.1-.3.2-.44.31,0,0-.02.01-.03.02-.12.09-.24.18-.36.26-.04.03-.08.06-.12.09-2.14,1.6-4,3.56-5.5,5.77-.01.02-.02.04-.04.05-.09.14-.18.28-.27.41-.01.02-.02.04-.04.06-.2.31-.39.63-.58.95,0,.01-.02.03-.03.04-.08.15-.17.29-.25.44-.01.02-.02.04-.03.06-.18.33-.35.66-.51,1,0,.01-.01.03-.02.04-.07.15-.14.31-.22.46-.01.02-.02.05-.03.07-.15.34-.3.68-.44,1.03,0,.01-.01.03-.02.04-.06.16-.12.31-.18.47-.01.03-.02.06-.03.09-.06.16-.12.32-.17.49,0,.01,0,.02-.01.03-.06.18-.12.36-.18.54,0,.02,0,.03-.01.05-.05.16-.1.32-.14.47-.01.04-.02.08-.03.12-.04.15-.08.3-.12.46,0,.03-.01.05-.02.08-.05.18-.09.36-.13.55,0,.02,0,.04-.01.05-.04.16-.07.32-.1.48,0,.05-.02.09-.03.14-.03.14-.06.29-.08.43,0,.04-.01.08-.02.12-.03.18-.06.36-.09.55,0,.02,0,.04,0,.06-.02.16-.05.32-.07.49,0,.05-.01.1-.02.16-.02.14-.03.28-.05.42,0,.05-.01.1-.02.15-.02.18-.03.37-.05.55,0,.01,0,.03,0,.04-.01.17-.02.34-.03.51,0,.06,0,.11,0,.17,0,.14-.01.27-.02.41,0,.06,0,.11,0,.17,0,.19,0,.37,0,.56,0,2.27.32,4.47.9,6.55,0,0,.05.14.05.14Z"/>
    <path class="st1" d="M26.11,58.85s0-.02,0-.02c0,0,0,.02,0,.02Z"/>
  </g>
</svg>