<?xml version="1.0" encoding="UTF-8"?>
<svg id="Layer_3" xmlns="http://www.w3.org/2000/svg" version="1.1" viewBox="0 0 600 600">
  <!-- Generator: Adobe Illustrator 30.0.0, SVG Export Plug-In . SVG Version: 2.1.1 Build 123)  -->
  <defs>
    <style>
      .st0 {
        opacity: .57;
      }

      .st0, .st1 {
        fill: #f5f5f5;
      }

      .st2 {
        fill: #3a5162;
      }
    </style>
  </defs>
  <circle class="st2" cx="300" cy="300" r="300"/>
  <g>
    <path class="st1" d="M108.07,355.69c0,.1.02.19.03.28,19.05,65.46,70.64,117.05,136.1,136.08.71.21,1.42.41,2.13.61,1,.28,2,.55,3.01.81.34.09.67.18,1.01.27,1.47.38,2.94.74,4.43,1.08.21.05.42.09.62.14,1.34.31,2.69.6,4.04.88.23.05.45.09.68.14,3.06.62,6.15,1.17,9.26,1.65.28.04.56.08.84.13,1.12.17,2.25.32,3.38.47.86.11,1.72.22,2.58.32.81.1,1.62.19,2.43.28,1.01.11,2.01.2,3.02.3.91.08,1.83.17,2.75.24.09,0,.19.01.28.02.18.01.35.03.53.04,1.53.11,3.06.21,4.6.29,1.1.06,2.2.09,3.3.13,1.36.05,2.72.08,4.08.1,1.01.01,2.02.04,3.03.04,11.84,0,23.44-1.04,34.71-3.02.51-.09,1.01-.18,1.52-.27.81-.15,1.61-.31,2.42-.46.84-.17,1.68-.33,2.51-.51,58.13-12.18,106.82-49.58,134.4-100.25,1-1.9,3.03-5.79,3.03-5.79l-28.44-17.25s-9.55,10.67-18.71,21.18c-.01.01-.02.02-.03.03-9.15,10.5-13.83,15.04-18.68,19.35-11.47,10.21-22.62,14.57-30.08,17.35-.19.07-.38.14-.56.22-5.03,1.64-10.5,2.93-16.43,3.88-6.93,1.12-14.48,1.76-22.64,1.94-1.53.03-3.09.05-4.66.05-4.67,0-9.27-.27-13.81-.82-14.65-1.73-28.59-6.3-41.84-13.68-5.31-2.96-10.52-6.38-15.61-10.26-4.98-3.79-9.87-8.02-14.64-12.69-2.27-2.22-4.51-4.53-6.74-6.95-27.2-29.59-40.79-69.48-40.79-119.66,0-3.53.08-6.97.25-10.38.23-5.04.64-9.91,1.22-14.68,1.01-8.31,2.55-16.19,4.63-23.66,2.35-8.49,5.38-16.44,9.12-23.86,1.88-3.75,3.93-7.36,6.18-10.84,3.19-4.98,6.76-9.69,10.71-14.11.4-.47.82-.94,1.25-1.41.14-.15.28-.31.42-.45,1.29-1.39,2.58-2.75,3.9-4.05.53-.53,1.06-1.06,1.59-1.57,1.71-1.66,3.44-3.25,5.18-4.76.98-.87,1.98-1.71,2.97-2.51.03-.04.06-.06.09-.08.41-.34.82-.67,1.23-.98,2.28-1.83,4.58-3.53,6.92-5.12,3.43-2.34,6.92-4.42,10.47-6.27,2.74-1.44,5.53-2.72,8.35-3.84,3.18-1.3,6.42-2.4,9.7-3.3,1.6-.45,3.22-.85,4.84-1.21,2.32-.51,4.67-.93,7.03-1.26,2.8-.38,5.64-.65,8.5-.77,1.5-.08,3.01-.11,4.52-.11,1.18,0,2.34.03,3.48.1.04-.01.07-.01.1,0,1.04.05,2.06.13,3.07.25.23.01.45.04.67.07,2.68.31,5.25.8,7.73,1.48.14.03.29.07.42.11,1.32.36,2.61.78,3.86,1.25,1.97.72,3.87,1.57,5.7,2.55,1.62.85,3.18,1.82,4.7,2.88.15.09.32.21.47.32,3.36,2.51,6.48,5.64,9.36,9.36.69.88,1.35,1.81,2.01,2.76.03.03.05.07.08.1,1.19,1.73,2.33,3.56,3.43,5.51,1.61,2.84,3.12,5.93,4.53,9.25.45,1.05.89,2.11,1.32,3.21.59,1.65,1.2,3.26,1.82,4.84.09.24.18.46.29.69,1.56,3.93,3.21,7.6,4.94,10.99,1.32,2.59,2.69,5.04,4.1,7.32.14.24.29.47.44.72,1.01,1.62,2.04,3.14,3.11,4.59,1.14,1.55,2.3,3.02,3.48,4.4,1.34,1.55,2.7,2.98,4.1,4.31,1.19,1.13,2.4,2.17,3.64,3.15,3.89,3.05,7.91,5.52,12.07,7.42,1.31.61,2.65,1.15,3.99,1.63,2.1.77,4.25,1.39,6.42,1.88,1.02.23,2.03.42,3.06.58,2.62.42,5.27.64,7.99.67h.5c11.58,0,24.58-3,30.9-13.69,3.54-5.98,5.16-13.21,5.16-20.12,0-8.62-2.58-16.65-7.01-23.34-.54-.65-1.09-1.3-1.64-1.94-.49-.57-.97-1.15-1.46-1.71-.69-.8-1.4-1.58-2.1-2.37-.43-.48-.86-.96-1.29-1.43-.62-.68-1.24-1.34-1.87-2.01-.76-.8-1.52-1.6-2.29-2.39-.49-.5-.97-1-1.46-1.5-.78-.79-1.57-1.56-2.36-2.33-.49-.47-.97-.95-1.46-1.42-1.19-1.14-2.4-2.26-3.62-3.37-.71-.65-1.44-1.28-2.16-1.92-.56-.5-1.12-1-1.69-1.49-.56-.49-1.13-.96-1.7-1.44-.93-.78-1.86-1.56-2.8-2.33-.65-.53-1.31-1.06-1.97-1.59-.79-.63-1.59-1.25-2.4-1.86-1.11-.86-2.24-1.7-3.37-2.54-.9-.66-1.8-1.33-2.71-1.97-.85-.6-1.71-1.19-2.57-1.78-.66-.46-1.33-.91-1.99-1.36-.77-.52-1.55-1.03-2.34-1.54-1.16-.75-2.33-1.49-3.51-2.23-.51-.32-1.01-.64-1.52-.95-1.57-.95-3.16-1.88-4.76-2.79-.67-.38-1.35-.76-2.03-1.13-1.1-.61-2.21-1.21-3.33-1.81-.67-.36-1.35-.72-2.03-1.07-1.64-.85-3.3-1.68-4.97-2.48-.56-.27-1.12-.52-1.68-.78-1.26-.59-2.53-1.17-3.8-1.74-.7-.31-1.39-.61-2.09-.91-1.33-.57-2.67-1.13-4.02-1.68-.51-.21-1.02-.42-1.53-.63-1.79-.71-3.6-1.39-5.41-2.04-.6-.22-1.2-.42-1.8-.63-1.39-.49-2.79-.96-4.2-1.42-.62-.2-1.25-.41-1.87-.61-.58-.18-1.17-.36-1.75-.54-.83-.25-1.67-.5-2.51-.75-.6-.17-1.2-.35-1.8-.52-1.14-.32-2.29-.63-3.44-.93-.47-.12-.95-.25-1.43-.37-1.2-.3-2.39-.6-3.6-.88-.6-.14-1.2-.27-1.8-.41-.91-.2-1.82-.4-2.73-.59-.6-.12-1.19-.25-1.79-.37-.91-.18-1.82-.36-2.74-.52-.64-.12-1.28-.24-1.92-.35-.68-.12-1.36-.23-2.04-.34-.83-.14-1.67-.28-2.5-.4-.04-.01-.08-.02-.13-.02-.05,0-.1-.02-.14-.02-1.43-.21-2.86-.42-4.29-.6-.03,0-.06,0-.1-.01-.03,0-.05-.01-.08-.01-1.68-.22-3.36-.41-5.06-.57-.02,0-.03,0-.05,0-2.61-.26-5.25-.46-7.89-.62-1.57-.1-3.14-.17-4.72-.23-.55-.02-1.1-.05-1.65-.06-2-.06-4.01-.1-6.04-.1-1.91,0-3.8.03-5.7.09-.63.02-1.25.05-1.88.07-1.27.05-2.53.1-3.79.17-.74.04-1.47.09-2.2.14-1.15.08-2.3.16-3.45.26-.76.06-1.53.13-2.29.2-1.14.11-2.27.23-3.4.36-.74.08-1.48.16-2.21.25-1.29.16-2.56.34-3.84.52-.56.08-1.12.15-1.68.24-1.75.27-3.49.56-5.23.87-.75.14-1.5.29-2.25.43-1.05.2-2.09.4-3.13.62-.82.17-1.64.35-2.46.54-.97.22-1.94.44-2.9.66-.92.22-1.83.44-2.75.67-.55.14-1.09.28-1.64.42-1,.26-1.99.53-2.98.81-.57.16-1.15.32-1.72.48-.97.28-1.93.57-2.89.86-.58.18-1.15.35-1.72.53-.96.3-1.92.62-2.88.94-.55.18-1.11.36-1.66.55-1,.34-1.98.69-2.97,1.05-.5.18-1,.36-1.5.54-1.09.4-2.17.81-3.24,1.23-.39.15-.78.3-1.17.45-1.33.52-2.64,1.06-3.96,1.62-.13.06-.27.11-.4.17-5.95,2.52-11.75,5.31-17.38,8.37-.09.05-.17.09-.26.14-1.32.72-2.62,1.45-3.92,2.19-.12.07-.24.14-.35.21-1.27.73-2.52,1.47-3.77,2.23-.13.08-.25.15-.38.23-1.24.76-2.48,1.53-3.7,2.31-.11.07-.23.15-.34.22-1.24.8-2.48,1.61-3.7,2.43-.09.06-.17.12-.26.18-1.24.84-2.47,1.69-3.7,2.56-.08.05-.15.11-.23.16-1.01.72-2.02,1.46-3.02,2.2-.34.26-.69.51-1.03.76-17.8,13.36-33.3,29.61-45.79,48.07-.1.15-.2.3-.3.45-.77,1.14-1.53,2.3-2.27,3.46-.1.15-.2.31-.3.46-1.67,2.61-3.28,5.25-4.82,7.94-.07.12-.14.25-.21.37-.7,1.22-1.39,2.45-2.06,3.68-.09.17-.18.34-.28.5-1.48,2.73-2.9,5.5-4.25,8.31-.05.11-.1.22-.16.33-.61,1.27-1.21,2.55-1.79,3.84-.09.21-.19.41-.28.62-1.28,2.83-2.49,5.7-3.63,8.6-.04.11-.09.23-.13.34-.51,1.3-1.01,2.61-1.49,3.92-.09.26-.19.51-.28.77-.49,1.34-.97,2.69-1.43,4.05-.03.09-.06.17-.09.26-.51,1.5-.99,3-1.46,4.51-.04.14-.08.27-.12.41-.4,1.31-.79,2.62-1.17,3.95-.09.32-.18.64-.27.96-.35,1.26-.7,2.53-1.03,3.8-.06.22-.12.43-.17.65-.39,1.51-.76,3.02-1.11,4.54-.03.15-.07.3-.1.45-.3,1.32-.59,2.65-.87,3.99-.08.38-.16.76-.23,1.14-.24,1.2-.47,2.4-.69,3.6-.06.33-.12.65-.18.98-.27,1.52-.52,3.04-.76,4.56-.02.16-.04.32-.07.47-.2,1.34-.39,2.69-.57,4.05-.06.43-.11.87-.16,1.3-.14,1.15-.27,2.3-.4,3.46-.04.41-.09.81-.13,1.22-.15,1.53-.29,3.06-.41,4.6,0,.12-.02.25-.02.37-.1,1.41-.19,2.82-.27,4.23-.02.46-.05.93-.07,1.39-.05,1.13-.1,2.27-.13,3.4-.01.46-.03.92-.04,1.39-.04,1.55-.06,3.1-.06,4.66,0,18.9,2.63,37.19,7.53,54.53,0,0,.38,1.14.39,1.16Z"/>
    <path class="st0" d="M107.77,354.88c-.02-.07-.04-.13-.06-.2.02.07.04.13.06.2Z"/>
  </g>
</svg>