<?xml version="1.0" encoding="UTF-8"?>
<svg id="Layer_1" xmlns="http://www.w3.org/2000/svg" version="1.1" viewBox="0 0 32 32">
  <!-- Generator: Adobe Illustrator 30.0.0, SVG Export Plug-In . SVG Version: 2.1.1 Build 123)  -->
  <defs>
    <style>
      .st0 {
        fill: #3a5162;
      }

      .st1, .st2 {
        fill: #f5f5f5;
      }

      .st2 {
        opacity: .57;
      }
    </style>
  </defs>
  <circle class="st0" cx="16" cy="16" r="15.71"/>
  <g>
    <path class="st1" d="M5.95,18.92s0,.01,0,.01c1,3.43,3.7,6.13,7.13,7.13.04.01.07.02.11.03.05.01.1.03.16.04.02,0,.04,0,.05.01.08.02.15.04.23.06.01,0,.02,0,.03,0,.07.02.14.03.21.05.01,0,.02,0,.04,0,.16.03.32.06.49.09.01,0,.03,0,.04,0,.06,0,.12.02.18.02.04,0,.09.01.14.02.04,0,.08,0,.13.01.05,0,.11.01.16.02.05,0,.1,0,.14.01,0,0,0,0,.01,0,0,0,.02,0,.03,0,.08,0,.16.01.24.02.06,0,.12,0,.17,0,.07,0,.14,0,.21,0,.05,0,.11,0,.16,0,.62,0,1.23-.05,1.82-.16.03,0,.05,0,.08-.01.04,0,.08-.02.13-.02.04,0,.09-.02.13-.03,3.04-.64,5.59-2.6,7.04-5.25.05-.1.16-.3.16-.3l-1.49-.9s-.5.56-.98,1.11c0,0,0,0,0,0-.48.55-.72.79-.98,1.01-.6.53-1.18.76-1.58.91-.01,0-.02,0-.03.01-.26.09-.55.15-.86.2-.36.06-.76.09-1.19.1-.08,0-.16,0-.24,0-.24,0-.49-.01-.72-.04-.77-.09-1.5-.33-2.19-.72-.28-.16-.55-.33-.82-.54-.26-.2-.52-.42-.77-.66-.12-.12-.24-.24-.35-.36-1.42-1.55-2.14-3.64-2.14-6.27,0-.18,0-.37.01-.54.01-.26.03-.52.06-.77.05-.44.13-.85.24-1.24.12-.44.28-.86.48-1.25.1-.2.21-.39.32-.57.17-.26.35-.51.56-.74.02-.02.04-.05.07-.07,0,0,.01-.02.02-.02.07-.07.14-.14.2-.21.03-.03.06-.06.08-.08.09-.09.18-.17.27-.25.05-.05.1-.09.16-.13,0,0,0,0,0,0,.02-.02.04-.03.06-.05.12-.1.24-.18.36-.27.18-.12.36-.23.55-.33.14-.08.29-.14.44-.2.17-.07.34-.13.51-.17.08-.02.17-.04.25-.06.12-.03.24-.05.37-.07.15-.02.3-.03.45-.04.08,0,.16,0,.24,0,.06,0,.12,0,.18,0,0,0,0,0,0,0,.05,0,.11,0,.16.01.01,0,.02,0,.03,0,.14.02.27.04.4.08,0,0,.02,0,.02,0,.07.02.14.04.2.07.1.04.2.08.3.13.08.04.17.1.25.15,0,0,.02.01.02.02.18.13.34.3.49.49.04.05.07.09.11.14,0,0,0,0,0,0,.06.09.12.19.18.29.08.15.16.31.24.48.02.05.05.11.07.17.03.09.06.17.1.25,0,.01,0,.02.02.04.08.21.17.4.26.58.07.14.14.26.21.38,0,.01.02.02.02.04.05.08.11.16.16.24.06.08.12.16.18.23.07.08.14.16.21.23.06.06.13.11.19.16.2.16.41.29.63.39.07.03.14.06.21.09.11.04.22.07.34.1.05.01.11.02.16.03.14.02.28.03.42.03h.03c.61,0,1.29-.16,1.62-.72.19-.31.27-.69.27-1.05,0-.45-.13-.87-.37-1.22-.03-.03-.06-.07-.09-.1-.03-.03-.05-.06-.08-.09-.04-.04-.07-.08-.11-.12-.02-.03-.05-.05-.07-.07-.03-.04-.07-.07-.1-.11-.04-.04-.08-.08-.12-.13-.03-.03-.05-.05-.08-.08-.04-.04-.08-.08-.12-.12-.03-.02-.05-.05-.08-.07-.06-.06-.13-.12-.19-.18-.04-.03-.08-.07-.11-.1-.03-.03-.06-.05-.09-.08-.03-.03-.06-.05-.09-.08-.05-.04-.1-.08-.15-.12-.03-.03-.07-.06-.1-.08-.04-.03-.08-.07-.13-.1-.06-.04-.12-.09-.18-.13-.05-.03-.09-.07-.14-.1-.04-.03-.09-.06-.13-.09-.03-.02-.07-.05-.1-.07-.04-.03-.08-.05-.12-.08-.06-.04-.12-.08-.18-.12-.03-.02-.05-.03-.08-.05-.08-.05-.17-.1-.25-.15-.04-.02-.07-.04-.11-.06-.06-.03-.12-.06-.17-.09-.04-.02-.07-.04-.11-.06-.09-.04-.17-.09-.26-.13-.03-.01-.06-.03-.09-.04-.07-.03-.13-.06-.2-.09-.04-.02-.07-.03-.11-.05-.07-.03-.14-.06-.21-.09-.03-.01-.05-.02-.08-.03-.09-.04-.19-.07-.28-.11-.03-.01-.06-.02-.09-.03-.07-.03-.15-.05-.22-.07-.03-.01-.07-.02-.1-.03-.03,0-.06-.02-.09-.03-.04-.01-.09-.03-.13-.04-.03,0-.06-.02-.09-.03-.06-.02-.12-.03-.18-.05-.02,0-.05-.01-.07-.02-.06-.02-.13-.03-.19-.05-.03,0-.06-.01-.09-.02-.05-.01-.1-.02-.14-.03-.03,0-.06-.01-.09-.02-.05,0-.1-.02-.14-.03-.03,0-.07-.01-.1-.02-.04,0-.07-.01-.11-.02-.04,0-.09-.01-.13-.02,0,0,0,0,0,0,0,0,0,0,0,0-.07-.01-.15-.02-.22-.03,0,0,0,0,0,0,0,0,0,0,0,0-.09-.01-.18-.02-.26-.03,0,0,0,0,0,0-.14-.01-.27-.02-.41-.03-.08,0-.16,0-.25-.01-.03,0-.06,0-.09,0-.1,0-.21,0-.32,0-.1,0-.2,0-.3,0-.03,0-.07,0-.1,0-.07,0-.13,0-.2,0-.04,0-.08,0-.12,0-.06,0-.12,0-.18.01-.04,0-.08,0-.12.01-.06,0-.12.01-.18.02-.04,0-.08,0-.12.01-.07,0-.13.02-.2.03-.03,0-.06,0-.09.01-.09.01-.18.03-.27.05-.04,0-.08.02-.12.02-.05.01-.11.02-.16.03-.04,0-.09.02-.13.03-.05.01-.1.02-.15.03-.05.01-.1.02-.14.04-.03,0-.06.01-.09.02-.05.01-.1.03-.16.04-.03,0-.06.02-.09.03-.05.01-.1.03-.15.04-.03,0-.06.02-.09.03-.05.02-.1.03-.15.05-.03,0-.06.02-.09.03-.05.02-.1.04-.16.05-.03,0-.05.02-.08.03-.06.02-.11.04-.17.06-.02,0-.04.02-.06.02-.07.03-.14.06-.21.08,0,0-.01,0-.02,0-.31.13-.62.28-.91.44,0,0,0,0-.01,0-.07.04-.14.08-.21.11,0,0-.01,0-.02.01-.07.04-.13.08-.2.12,0,0-.01,0-.02.01-.07.04-.13.08-.19.12,0,0-.01,0-.02.01-.07.04-.13.08-.19.13,0,0,0,0-.01,0-.07.04-.13.09-.19.13,0,0,0,0-.01,0-.05.04-.11.08-.16.12-.02.01-.04.03-.05.04-.93.7-1.74,1.55-2.4,2.52,0,0-.01.02-.02.02-.04.06-.08.12-.12.18,0,0-.01.02-.02.02-.09.14-.17.28-.25.42,0,0,0,.01-.01.02-.04.06-.07.13-.11.19,0,0,0,.02-.01.03-.08.14-.15.29-.22.44,0,0,0,.01,0,.02-.03.07-.06.13-.09.2,0,.01,0,.02-.01.03-.07.15-.13.3-.19.45,0,0,0,.01,0,.02-.03.07-.05.14-.08.21,0,.01,0,.03-.01.04-.03.07-.05.14-.07.21,0,0,0,0,0,.01-.03.08-.05.16-.08.24,0,0,0,.01,0,.02-.02.07-.04.14-.06.21,0,.02,0,.03-.01.05-.02.07-.04.13-.05.2,0,.01,0,.02,0,.03-.02.08-.04.16-.06.24,0,0,0,.02,0,.02-.02.07-.03.14-.05.21,0,.02,0,.04-.01.06-.01.06-.02.13-.04.19,0,.02,0,.03,0,.05-.01.08-.03.16-.04.24,0,0,0,.02,0,.02-.01.07-.02.14-.03.21,0,.02,0,.05,0,.07,0,.06-.01.12-.02.18,0,.02,0,.04,0,.06,0,.08-.02.16-.02.24,0,0,0,.01,0,.02,0,.07-.01.15-.01.22,0,.02,0,.05,0,.07,0,.06,0,.12,0,.18,0,.02,0,.05,0,.07,0,.08,0,.16,0,.24,0,.99.14,1.95.39,2.86,0,0,.02.06.02.06Z"/>
    <path class="st2" d="M5.93,18.87s0,0,0-.01c0,0,0,0,0,.01Z"/>
  </g>
</svg>